<svg xmlns="http://www.w3.org/2000/svg" viewBox="0 0 1200 1100" role="img" aria-labelledby="title"><title id="title">Sculpted Lintel gateway in violet and blue</title><defs>
 <linearGradient id="violet" x1="0" y1="0" x2="1" y2="1"><stop stop-color="#b8a2ff"/><stop offset=".45" stop-color="#7961d7"/><stop offset="1" stop-color="#49309b"/></linearGradient>
 <linearGradient id="blue" x1="0" y1="0" x2="1" y2="1"><stop stop-color="#d8f6ff"/><stop offset=".5" stop-color="#75b9ed"/><stop offset="1" stop-color="#3578bc"/></linearGradient>
 <linearGradient id="glass" x1="0" y1="0" x2="1" y2="1"><stop stop-color="#fff" stop-opacity=".98"/><stop offset=".5" stop-color="#eee9ff" stop-opacity=".8"/><stop offset="1" stop-color="#c8bbef" stop-opacity=".9"/></linearGradient>
 <linearGradient id="mint" x1="0" y1="0" x2="1" y2="1"><stop stop-color="#d2f7ca"/><stop offset="1" stop-color="#64b48b"/></linearGradient>
 <radialGradient id="halo"><stop stop-color="#ddd7fb" stop-opacity=".75"/><stop offset="1" stop-color="#fff" stop-opacity="0"/></radialGradient>
 <filter id="shadow" x="-40%" y="-40%" width="180%" height="190%"><feDropShadow dx="0" dy="18" stdDeviation="15" flood-color="#4e3584" flood-opacity=".18"/><feDropShadow dx="0" dy="3" stdDeviation="3" flood-color="#342357" flood-opacity=".12"/></filter>
 </defs><rect width="1200" height="1100" fill="#faf9ff"/><ellipse cx="700" cy="620" rx="540" ry="510" fill="url(#halo)"/><ellipse cx="683" cy="972" rx="315" ry="53" fill="#7f6baf" opacity=".12"/>
<g filter="url(#shadow)"><path d="M280 930V272Q280 162 390 162H912Q988 162 988 250V930H919V277Q919 232 875 232H408Q350 232 350 290V930Z" fill="url(#blue)"/>
<path d="M348 930V290Q348 230 408 230H875Q922 230 922 277V930H858V305Q858 289 839 289H431Q411 289 411 310V930Z" fill="url(#violet)"/>
<path d="M412 930V311Q412 290 432 290H839Q858 290 858 305V930H810V337H460V930Z" fill="url(#glass)"/>
<path d="M350 290Q350 231 408 231H875Q921 231 921 277" stroke="#fff" stroke-opacity=".8" stroke-width="3" fill="none"/>
<path d="M283 930L349 930L412 960L340 960Z" fill="#547aab"/><path d="M922 930L989 930L938 964L859 964Z" fill="#436fa3"/></g>
<g transform="translate(417 460) scale(3.55)" filter="url(#shadow)"><path fill="url(#violet)" d="M20 27L37 17L51 35V92H103L111 109H20Z"/><path fill="url(#mint)" d="M37 17L108 36V70L90 80V50L37 36Z"/><path d="M37 17L108 36M51 92H103" stroke="#fff" stroke-opacity=".6" fill="none"/></g>
<circle cx="1065" cy="435" r="47" fill="url(#glass)" filter="url(#shadow)"/><circle cx="216" cy="560" r="30" fill="url(#mint)" filter="url(#shadow)"/><path d="M989 726L1045 700L1095 729L1041 757Z" fill="url(#violet)" filter="url(#shadow)"/></svg>